<svg width="120" height="66" viewBox="0 0 120 66" fill="none" xmlns="http://www.w3.org/2000/svg">
<g filter="url(#filter0_d_2097_3579)">
<mask id="mask0_2097_3579" style="mask-type:alpha" maskUnits="userSpaceOnUse" x="62" y="15" width="38" height="37">
<path d="M99.9805 17.3275C90.616 12.7013 79.2115 16.5112 74.5079 25.837L62.3354 49.9714C71.6999 54.5975 83.1044 50.7877 87.808 41.4618L99.9805 17.3275Z" fill="url(#paint0_linear_2097_3579)"/>
</mask>
<g mask="url(#mask0_2097_3579)">
<path fill-rule="evenodd" clip-rule="evenodd" d="M47.9297 61.5263C47.9297 46.6801 59.4938 34.6449 73.7589 34.6449H88.2022V34.9716C88.2022 42.9484 81.7358 49.4149 73.7589 49.4149C67.3318 49.4149 62.1216 54.8373 62.1216 61.5263H47.9297Z" fill="#A6A6A6"/>
<path fill-rule="evenodd" clip-rule="evenodd" d="M47.9297 59.2751C47.9297 39.852 63.8151 24.1066 83.4108 24.1066L85.8803 24.1066L83.4108 34.5008H88.2038C88.0277 36.5778 86.2904 38.174 84.206 38.174H83.4108C71.6534 38.174 62.1221 47.6213 62.1221 59.2751V61.5259H47.9297V59.2751Z" fill="#BEBEBE"/>
<path fill-rule="evenodd" clip-rule="evenodd" d="M47.9297 57.003C47.9297 37.4876 64.1062 21.6673 84.0608 21.6673L92.8851 21.6673V26.9773C92.8851 31.8508 88.9343 35.8016 84.0608 35.8016C72.088 35.8016 62.3821 45.2938 62.3821 57.003V61.526H47.9297V57.003Z" fill="white"/>
<path fill-rule="evenodd" clip-rule="evenodd" d="M47.9297 44.5837C47.9297 24.7601 64.1062 8.68982 84.0608 8.68982H86.5756L84.2095 19.9676H92.8851V23.0474H84.0608C72.088 23.0474 62.3821 32.6895 62.3821 44.5837V61.5257H47.9297V44.5837Z" fill="#DEDEDE"/>
<path fill-rule="evenodd" clip-rule="evenodd" d="M47.9297 42.9298C47.9297 22.9959 64.1206 6.83626 84.0931 6.83626H103.187C103.187 14.8098 96.7235 21.2737 88.75 21.2737H84.0931C72.1096 21.2737 62.395 30.9695 62.395 42.9298V60.5701C62.395 62.1219 61.1371 63.3799 59.5852 63.3799H50.7395C49.1877 63.3799 47.9297 62.1219 47.9297 60.5701L47.9297 42.9298Z" fill="#D3D3D3"/>
</g>
<g opacity="0.33">
<mask id="mask1_2097_3579" style="mask-type:alpha" maskUnits="userSpaceOnUse" x="61" y="23" width="46" height="32">
<path d="M106.766 27.8918C98.9658 20.9846 86.9549 21.6766 79.9383 29.4374L61.7535 49.5513C69.5533 56.4584 81.5643 55.7664 88.5808 48.0056L106.766 27.8918Z" fill="url(#paint1_linear_2097_3579)"/>
</mask>
<g mask="url(#mask1_2097_3579)">
<path fill-rule="evenodd" clip-rule="evenodd" d="M44.7768 56.9345C48.7337 42.6142 63.096 34.0244 76.8558 37.7487L90.7875 41.5195L90.6949 41.8547C88.5719 49.5379 80.6135 54.0781 72.9192 51.9956C66.7197 50.3176 60.2488 54.1877 58.466 60.6397L44.7768 56.9345Z" fill="#A6A6A6"/>
<path fill-rule="evenodd" clip-rule="evenodd" d="M45.3766 54.7641C50.5534 36.029 70.0728 24.9886 88.9744 30.1046L91.3564 30.7493L86.204 40.1307L90.8273 41.382C90.1038 43.3394 88.0004 44.4249 85.987 43.8799L85.225 43.6737C73.8841 40.6041 62.1724 47.2284 59.0664 58.4694L58.4665 60.6405L44.7767 56.9352L45.3766 54.7641Z" fill="#BEBEBE"/>
<path fill-rule="evenodd" clip-rule="evenodd" d="M45.9824 52.5718C51.1838 33.7477 71.0039 22.711 90.2518 27.9207L98.7635 30.2245L97.3448 35.3587C96.0478 40.0528 91.1855 42.8267 86.4846 41.5544C74.9359 38.4285 63.0438 45.0505 59.923 56.345L58.7175 60.7078L44.7769 56.9345L45.9824 52.5718Z" fill="white"/>
<path fill-rule="evenodd" clip-rule="evenodd" d="M49.2907 40.5927C54.5742 21.4711 74.4609 10.1934 93.7088 15.4031L96.1345 16.0596L90.8464 26.3202L99.2147 28.5852L98.3938 31.556L89.8821 29.2521C78.3334 26.1263 66.4014 32.893 63.2312 44.3659L58.7157 60.7077L44.7752 56.9345L49.2907 40.5927Z" fill="#DEDEDE"/>
<path fill-rule="evenodd" clip-rule="evenodd" d="M49.7316 38.9972C55.0446 19.7693 74.969 8.40912 94.2341 13.6235L112.652 18.6086C110.527 26.2997 102.56 30.8446 94.858 28.7599L90.3861 27.5495C78.8271 24.4209 66.8724 31.237 63.6846 42.7737L58.9825 59.7912C58.5691 61.2869 57.0198 62.1708 55.5219 61.7654L46.9933 59.457C45.4954 59.0516 44.6161 57.5104 45.0294 56.0146L49.7316 38.9972Z" fill="#D3D3D3"/>
</g>
</g>
<mask id="mask2_2097_3579" style="mask-type:alpha" maskUnits="userSpaceOnUse" x="20" y="15" width="38" height="37">
<path d="M20.0195 17.3275C29.384 12.7013 40.7885 16.5112 45.4921 25.837L57.6646 49.9714C48.3001 54.5975 36.8956 50.7877 32.192 41.4618L20.0195 17.3275Z" fill="url(#paint2_linear_2097_3579)"/>
</mask>
<g mask="url(#mask2_2097_3579)">
<path fill-rule="evenodd" clip-rule="evenodd" d="M72.0742 61.5263C72.0742 46.6801 60.5101 34.6449 46.245 34.6449H31.8017V34.9715C31.8017 42.9484 38.2682 49.4149 46.245 49.4149C52.6721 49.4149 57.8823 54.8373 57.8823 61.5263H72.0742Z" fill="#A6A6A6"/>
<path fill-rule="evenodd" clip-rule="evenodd" d="M72.0742 59.2752C72.0742 39.8521 56.1888 24.1066 36.5931 24.1066L34.1236 24.1066L36.5931 34.5009H31.8001C31.9762 36.5779 33.7135 38.174 35.7979 38.174H36.5931C48.3505 38.174 57.8818 47.6213 57.8818 59.2752V61.5259H72.0742V59.2752Z" fill="#BEBEBE"/>
<path fill-rule="evenodd" clip-rule="evenodd" d="M72.0742 57.003C72.0742 37.4877 55.8978 21.6673 35.9431 21.6673L27.1188 21.6673V26.9774C27.1188 31.8509 31.0696 35.8016 35.9431 35.8016C47.9159 35.8016 57.6218 45.2938 57.6218 57.003V61.526H72.0742V57.003Z" fill="white"/>
<path fill-rule="evenodd" clip-rule="evenodd" d="M72.0742 44.5837C72.0742 24.7601 55.8978 8.6898 35.9431 8.6898H33.4284L35.7944 19.9675H27.1188V23.0474H35.9431C47.9159 23.0474 57.6218 32.6895 57.6218 44.5837V61.5257H72.0742V44.5837Z" fill="#DEDEDE"/>
<path fill-rule="evenodd" clip-rule="evenodd" d="M72.0742 42.9298C72.0742 22.9959 55.8833 6.83629 35.9108 6.83629H16.8165C16.8165 14.8099 23.2804 21.2737 31.254 21.2737H35.9108C47.8943 21.2737 57.6089 30.9695 57.6089 42.9298V60.5701C57.6089 62.1219 58.8669 63.3799 60.4187 63.3799H69.2644C70.8162 63.3799 72.0742 62.1219 72.0742 60.5701L72.0742 42.9298Z" fill="#D3D3D3"/>
</g>
<g opacity="0.33">
<mask id="mask3_2097_3579" style="mask-type:alpha" maskUnits="userSpaceOnUse" x="13" y="23" width="46" height="32">
<path d="M13.2324 27.8919C21.032 20.9847 33.0425 21.6767 40.0588 29.4375L58.2431 49.5512C50.4435 56.4584 38.433 55.7664 31.4167 48.0056L13.2324 27.8919Z" fill="url(#paint3_linear_2097_3579)"/>
</mask>
<g mask="url(#mask3_2097_3579)">
<path fill-rule="evenodd" clip-rule="evenodd" d="M75.2174 56.9343C71.2605 42.614 56.8982 34.0242 43.1383 37.7485L29.2066 41.5193L29.2992 41.8545C31.4222 49.5377 39.3807 54.0779 47.075 51.9954C53.2745 50.3174 59.7454 54.1875 61.5282 60.6395L75.2174 56.9343Z" fill="#A6A6A6"/>
<path fill-rule="evenodd" clip-rule="evenodd" d="M74.6195 54.7639C69.4427 36.0288 49.9233 24.9884 31.0217 30.1044L28.6397 30.7491L33.7921 40.1305L29.1688 41.3818C29.8923 43.3392 31.9957 44.4247 34.0091 43.8797L34.771 43.6735C46.112 40.6039 57.8237 47.2282 60.9297 58.4692L61.5296 60.6403L75.2194 56.935L74.6195 54.7639Z" fill="#BEBEBE"/>
<path fill-rule="evenodd" clip-rule="evenodd" d="M74.0137 52.5716C68.8123 33.7475 48.9922 22.7108 29.7443 27.9205L21.2326 30.2244L22.6512 35.3585C23.9483 40.0526 28.8106 42.8265 33.5115 41.5542C45.0602 38.4283 56.9523 45.0503 60.0731 56.3448L61.2786 60.7076L75.2191 56.9344L74.0137 52.5716Z" fill="white"/>
<path fill-rule="evenodd" clip-rule="evenodd" d="M70.7054 40.5925C65.4218 21.471 45.5352 10.1932 26.2873 15.403L23.8616 16.0595L29.1497 26.3201L20.7814 28.5851L21.6023 31.5558L30.114 29.252C41.6627 26.1262 53.5947 32.8928 56.7649 44.3657L61.2804 60.7076L75.2209 56.9344L70.7054 40.5925Z" fill="#DEDEDE"/>
<path fill-rule="evenodd" clip-rule="evenodd" d="M70.2645 38.997C64.9515 19.7691 45.0271 8.40895 25.762 13.6233L7.34405 18.6084C9.46923 26.2996 17.4359 30.8445 25.1381 28.7598L29.61 27.5494C41.169 24.4208 53.1237 31.2369 56.3115 42.7736L61.0136 59.791C61.4269 61.2868 62.9763 62.1707 64.4742 61.7652L73.0028 59.4569C74.5007 59.0514 75.38 57.5102 74.9666 56.0144L70.2645 38.997Z" fill="#D3D3D3"/>
</g>
</g>
<g opacity="0.5">
<path opacity="0.8" d="M64.6139 20.7931C65.7965 22.076 66.4609 23.8161 66.4609 25.6305L61.8366 33.956C61.1036 35.2756 59.2058 35.2756 58.4728 33.956L53.8485 25.6305C53.8485 23.8161 54.5129 22.076 55.6955 20.7931C56.8782 19.5101 58.4822 18.7894 60.1547 18.7894C61.8272 18.7894 63.4312 19.5101 64.6139 20.7931Z" fill="white"/>
<path opacity="0.8" d="M64.6139 24.3699C65.7965 25.3694 66.4609 26.7251 66.4609 28.1386L61.7213 34.7865C60.9541 35.8626 59.3553 35.8626 58.5881 34.7865L53.8485 28.1386C53.8485 26.7251 54.5129 25.3694 55.6955 24.3699C56.8782 23.3704 58.4822 22.8089 60.1547 22.8089C61.8272 22.8089 63.4312 23.3704 64.6139 24.3699Z" fill="white"/>
<path opacity="0.85" d="M64.6139 17.9688C65.7965 19.4755 66.4609 21.5191 66.4609 23.6499L61.8939 33.3063C61.1994 34.7748 59.11 34.7748 58.4155 33.3063L53.8485 23.6499C53.8485 21.5191 54.5129 19.4755 55.6955 17.9688C56.8782 16.4621 58.4822 15.6156 60.1547 15.6156C61.8272 15.6156 63.4312 16.4621 64.6139 17.9688Z" fill="#DEDEDE"/>
</g>
</g>
<path d="M55.7688 19.3122C54.5462 20.5951 53.8594 22.3352 53.8594 24.1496L58.7103 32.5975C59.4498 33.8854 61.3076 33.8854 62.0472 32.5975L66.8981 24.1496C66.8981 22.3352 66.2112 20.5951 64.9886 19.3122C63.766 18.0292 62.1077 17.3085 60.3787 17.3085C58.6497 17.3085 56.9915 18.0292 55.7688 19.3122Z" fill="#DEDEDE"/>
<path opacity="0.7" d="M55.7688 23.0882C54.5462 24.2145 53.8594 25.7421 53.8594 27.335L58.7686 34.8406C59.528 36.0017 61.2294 36.0017 61.9888 34.8406L66.8981 27.335C66.8981 25.7421 66.2112 24.2145 64.9886 23.0882C63.766 21.9619 62.1077 21.3291 60.3787 21.3291C58.6497 21.3291 56.9915 21.9619 55.7688 23.0882Z" fill="white"/>
<g filter="url(#filter1_d_2097_3579)">
<path d="M55.7688 16.4886C54.5462 17.9953 53.8594 20.0389 53.8594 22.1697C56.4216 16.6007 64.3358 16.6007 66.8981 22.1697C66.8981 20.0389 66.2112 17.9953 64.9886 16.4886C63.766 14.9818 62.1077 14.1354 60.3787 14.1354C58.6497 14.1354 56.9915 14.9818 55.7688 16.4886Z" fill="white"/>
</g>
<g style="mix-blend-mode:color">
<path d="M58.5728 49.7246L44.6577 24.068C41.9223 19.7721 33.383 12.3257 21.1092 16.9081C21.7832 17.8627 23.9636 19.9868 27.2937 20.846V27.4093C27.4522 29.1595 28.6257 33.1373 32.051 35.0466C32.1699 39.9393 35.4286 49.7246 47.5121 49.7246C48.1861 49.6052 50.2476 49.8677 53.1019 51.8725L58.5728 49.7246Z" fill="white"/>
<path d="M53.1019 51.8725C50.2476 49.8677 48.1861 49.6052 47.5121 49.7246C35.4286 49.7246 32.1699 39.9393 32.051 35.0466C28.6257 33.1373 27.4522 29.1595 27.2937 27.4093V20.846C23.9636 19.9868 21.7832 17.8627 21.1092 16.9081C33.383 12.3257 41.9223 19.7721 44.6577 24.068L58.5728 49.7246L53.1019 51.8725ZM53.1019 51.8725C51.4369 51.5145 46.4417 52.4692 45.6092 52.7079C44.9432 52.8988 43.1116 52.7874 42.2791 52.7079C34.1917 52.326 30.3463 45.2612 29.4344 41.7766M25.2718 23.2327C24.915 23.352 19.682 23.352 14.3301 27.4093C14.8455 27.8867 16.9466 28.9607 21.2281 29.438L23.0121 36.0013C23.4997 37.6088 25.4254 40.7207 29.4344 41.7766M29.4344 41.7766C29.9887 41.9226 30.5828 42.0293 31.2184 42.0872" stroke="white" stroke-width="1.18932"/>
<path d="M93.658 23.2327V27.4093C93.4995 29.1595 92.326 33.1373 88.9008 35.0466C88.7818 39.9393 85.5231 49.7246 73.4396 49.7246C72.7656 49.6052 70.7041 49.8677 67.8498 51.8725L69.3959 51.7532C71.0609 51.3952 74.51 52.4692 75.3425 52.7079C76.0085 52.8988 77.8401 52.7874 78.6726 52.7079C86.76 52.326 90.6054 45.2612 91.5173 41.7766C95.5263 40.7207 97.452 37.6088 97.9396 36.0013L99.7236 29.438C104.005 28.9607 106.106 27.8867 106.622 27.4093C101.27 23.352 96.0367 23.352 95.6799 23.2327H93.658Z" fill="white"/>
<path d="M67.8498 51.8725C70.7041 49.8677 72.7656 49.6052 73.4396 49.7246C85.5231 49.7246 88.7818 39.9393 88.9008 35.0466C92.326 33.1373 93.4995 29.1595 93.658 27.4093V23.2327M67.8498 51.8725L62.3789 49.7246L76.294 24.068C79.0294 19.7721 87.5687 12.3257 99.8425 16.9081C99.1686 17.8627 96.9881 19.9868 93.658 20.846V23.2327M67.8498 51.8725L69.3959 51.7532C71.0609 51.3952 74.51 52.4692 75.3425 52.7079C76.0085 52.8988 77.8401 52.7874 78.6726 52.7079C86.76 52.326 90.6054 45.2612 91.5173 41.7766M91.5173 41.7766C95.5263 40.7207 97.452 37.6088 97.9396 36.0013L99.7236 29.438C104.005 28.9607 106.106 27.8867 106.622 27.4093C101.27 23.352 96.0367 23.352 95.6799 23.2327H93.658M91.5173 41.7766C90.963 41.9226 90.3689 42.0293 89.7333 42.0872M93.5391 23.2327H93.658" stroke="white" stroke-width="1.18932"/>
<path d="M55.899 18.2475C54.7168 19.8744 54.0527 22.081 54.0527 24.3818L58.5937 34.7538C59.2664 36.2902 61.4459 36.2902 62.1186 34.7538L66.6595 24.3818C66.6595 22.081 65.9954 19.8744 64.8133 18.2475C63.6312 16.6205 62.0279 15.7065 60.3561 15.7065C58.6844 15.7065 57.0811 16.6205 55.899 18.2475Z" fill="white"/>
</g>
<g style="mix-blend-mode:overlay">
<path d="M52.8636 51.624C52.8636 51.1376 48.9389 49.4832 47.2738 49.4832C35.1903 49.4832 31.9316 39.7472 31.8127 34.8546C28.3874 32.9453 27.214 29.1596 27.0554 27.4094V20.7017C23.7253 19.8425 21.8224 17.9662 20.8709 16.9081C33.1447 12.3258 41.684 19.7721 44.4195 24.0681L57.7399 49.959L52.8636 51.624ZM52.8636 51.624C51.1986 51.266 46.2034 52.0989 45.3709 52.3376C44.7049 52.5285 42.9923 52.5361 42.1598 52.4565C34.0724 52.0747 30.108 45.2373 29.1962 41.7527M25.0335 23.2328C24.6767 23.3521 19.4437 23.3521 14.0918 27.4094C14.6072 27.8867 16.7083 28.9607 20.9899 29.438L22.7738 36.0013C23.2614 37.6089 25.1872 40.6967 29.1962 41.7527M29.1962 41.7527C29.7504 41.8986 30.3445 42.0293 30.9801 42.0873" stroke="white"/>
</g>
<g style="mix-blend-mode:overlay">
<path d="M67.0192 51.624C67.0192 51.1376 70.9439 49.4832 72.609 49.4832C84.6925 49.4832 87.9512 39.7472 88.0701 34.8546C91.4954 32.9452 92.6688 29.1596 92.8274 27.4094V20.7017C96.1575 19.8425 98.0604 17.9662 99.0119 16.9081C86.7381 12.3257 78.1988 19.7721 75.4633 24.0681L62.143 49.9589L67.0192 51.624ZM67.0192 51.624C68.6842 51.266 73.6794 52.0989 74.5119 52.3376C75.1779 52.5285 76.8905 52.5361 77.7231 52.4565C85.8104 52.0746 89.7748 45.2373 90.6866 41.7526M94.8493 23.2327C95.2061 23.3521 100.439 23.3521 105.791 27.4094C105.276 27.8867 103.175 28.9607 98.893 29.438L97.109 36.0013C96.6214 37.6088 94.6957 40.6967 90.6866 41.7526M90.6866 41.7526C90.1324 41.8986 89.5383 42.0293 88.9027 42.0873" stroke="white"/>
</g>
<defs>
<filter id="filter0_d_2097_3579" x="0.0682421" y="0.00165343" width="119.862" height="65.2794" filterUnits="userSpaceOnUse" color-interpolation-filters="sRGB">
<feFlood flood-opacity="0" result="BackgroundImageFix"/>
<feColorMatrix in="SourceAlpha" type="matrix" values="0 0 0 0 0 0 0 0 0 0 0 0 0 0 0 0 0 0 127 0" result="hardAlpha"/>
<feOffset dy="-2.19403"/>
<feGaussianBlur stdDeviation="6.58209"/>
<feComposite in2="hardAlpha" operator="out"/>
<feColorMatrix type="matrix" values="0 0 0 0 1 0 0 0 0 1 0 0 0 0 1 0 0 0 0.35 0"/>
<feBlend mode="normal" in2="BackgroundImageFix" result="effect1_dropShadow_2097_3579"/>
<feBlend mode="normal" in="SourceGraphic" in2="effect1_dropShadow_2097_3579" result="shape"/>
</filter>
<filter id="filter1_d_2097_3579" x="53.8594" y="14.1354" width="13.0391" height="9.31694" filterUnits="userSpaceOnUse" color-interpolation-filters="sRGB">
<feFlood flood-opacity="0" result="BackgroundImageFix"/>
<feColorMatrix in="SourceAlpha" type="matrix" values="0 0 0 0 0 0 0 0 0 0 0 0 0 0 0 0 0 0 127 0" result="hardAlpha"/>
<feOffset dy="1.28263"/>
<feComposite in2="hardAlpha" operator="out"/>
<feColorMatrix type="matrix" values="0 0 0 0 0.758333 0 0 0 0 0.758333 0 0 0 0 0.758333 0 0 0 1 0"/>
<feBlend mode="normal" in2="BackgroundImageFix" result="effect1_dropShadow_2097_3579"/>
<feBlend mode="normal" in="SourceGraphic" in2="effect1_dropShadow_2097_3579" result="shape"/>
</filter>
<linearGradient id="paint0_linear_2097_3579" x1="91.5025" y1="13.1393" x2="71.1547" y2="54.3282" gradientUnits="userSpaceOnUse">
<stop stop-color="#FCDE62"/>
<stop offset="1" stop-color="#F48E39"/>
</linearGradient>
<linearGradient id="paint1_linear_2097_3579" x1="99.7042" y1="21.6385" x2="69.1698" y2="56.1188" gradientUnits="userSpaceOnUse">
<stop stop-color="#FCDE62"/>
<stop offset="1" stop-color="#F48E39"/>
</linearGradient>
<linearGradient id="paint2_linear_2097_3579" x1="28.4975" y1="13.1393" x2="48.8453" y2="54.3282" gradientUnits="userSpaceOnUse">
<stop stop-color="#FCDE62"/>
<stop offset="1" stop-color="#F48E39"/>
</linearGradient>
<linearGradient id="paint3_linear_2097_3579" x1="20.2936" y1="21.6386" x2="50.8279" y2="56.118" gradientUnits="userSpaceOnUse">
<stop stop-color="#FCDE62"/>
<stop offset="1" stop-color="#F48E39"/>
</linearGradient>
</defs>
</svg>
